<svg version="1.1" xmlns="http://www.w3.org/2000/svg" width="54" height="60" viewBox="0 0 54 60"><title>book-open</title><path d="M20.4 36.72v4.08L8.4 36v-4.08l12 4.8zm0-12.48v4.08l-12-4.8v-4.08l12 4.8zM52.68 3.48C53.56 3.96 54 4.8 54 6v38.4c0 1.36-.64 2.28-1.92 2.76l-23.88 9.6c-.32.08-.52.12-.6.12s-.18.02-.3.06c-.12.04-.22.06-.3.06s-.18-.02-.3-.06a.987.987 0 0 0-.3-.06l-.6-.12-23.88-9.6C.64 46.68 0 45.76 0 44.4V6c0-1.2.44-2.04 1.32-2.52.88-.64 1.8-.76 2.76-.36L27 12.36l22.92-9.24c.96-.4 1.88-.28 2.76.36zM24 50.76v-33.6L4.8 9.48v33.6L24 50.76zm25.2-7.68V9.48L30 17.16v33.6l19.2-7.68zm-3.6-11.16V36l-12 4.8v-4.08l12-4.8zm0-12.48v4.08l-12 4.8v-4.08l12-4.8z"/></svg>