<?xml version="1.0" encoding="UTF-8" standalone="no"?>
<!-- Created with Inkscape (http://www.inkscape.org/) -->

<svg
   xmlns:dc="http://purl.org/dc/elements/1.1/"
   xmlns:cc="http://creativecommons.org/ns#"
   xmlns:rdf="http://www.w3.org/1999/02/22-rdf-syntax-ns#"
   xmlns:svg="http://www.w3.org/2000/svg"
   xmlns="http://www.w3.org/2000/svg"
   xmlns:sodipodi="http://sodipodi.sourceforge.net/DTD/sodipodi-0.dtd"
   xmlns:inkscape="http://www.inkscape.org/namespaces/inkscape"
   id="svg2985"
   version="1.1"
   inkscape:version="0.48.2 r9819"
   width="342"
   height="398"
   sodipodi:docname="Sin título-1.jpg">
  <metadata
     id="metadata2991">
    <rdf:RDF>
      <cc:Work
         rdf:about="">
        <dc:format>image/svg+xml</dc:format>
        <dc:type
           rdf:resource="http://purl.org/dc/dcmitype/StillImage" />
        <dc:title></dc:title>
      </cc:Work>
    </rdf:RDF>
  </metadata>
  <defs
     id="defs2989" />
  <sodipodi:namedview
     pagecolor="#ffffff"
     bordercolor="#666666"
     borderopacity="1"
     objecttolerance="10"
     gridtolerance="10"
     guidetolerance="10"
     inkscape:pageopacity="0"
     inkscape:pageshadow="2"
     inkscape:window-width="1680"
     inkscape:window-height="975"
     id="namedview2987"
     showgrid="false"
     inkscape:zoom="1.8517588"
     inkscape:cx="171"
     inkscape:cy="199"
     inkscape:window-x="-9"
     inkscape:window-y="-9"
     inkscape:window-maximized="1"
     inkscape:current-layer="svg2985" />
  <g
     id="g3019">
    <path
       style="fill:#3ac0d1"
       d="m 156.5,353.5208 c -30.05072,-6.61215 -55.85927,-29.25802 -73.505911,-64.49821 -8.357768,-16.6904 -15.462162,-40.38421 -18.057951,-60.22495 -1.218327,-9.3122 -1.2899,-9.48439 -4.316022,-10.38343 -3.932658,-1.16838 -7.078719,-5.88952 -9.899491,-14.85568 -1.895659,-6.02559 -2.220291,-9.32679 -2.218346,-22.55853 0.0019,-13.21645 0.3291,-16.53991 2.220626,-22.55853 4.030116,-12.82338 9.283974,-17.69583 15.335837,-14.22254 l 2.896184,1.66218 1.058059,-4.19055 C 80.829272,98.851522 109.24567,60.875701 140.5,47.49135 168.0628,35.687857 198.50717,39.911505 223.92623,59.065348 244.43605,74.519956 261.89532,100.82833 271.6649,131 c 2.04803,6.325 3.83216,11.6584 3.96473,11.852 0.13257,0.1936 1.27026,-0.3689 2.52821,-1.25 5.95367,-4.17012 12.36892,0.89934 16.0816,12.70801 1.9129,6.08423 2.26056,9.41998 2.26056,21.68999 0,12.27001 -0.34766,15.60576 -2.26056,21.68999 C 291.91688,205.07722 286.82006,212 283.70388,212 c -1.15681,0 -1.72851,1.48602 -2.21212,5.75 -5.34037,47.08594 -20.71632,83.47265 -45.97232,108.79209 -19.1069,19.15489 -39.97306,28.56007 -62.95983,28.37841 C 167.02682,354.87678 159.8,354.24691 156.5,353.5208 z"
       id="path3025"
       inkscape:connector-curvature="0" />
    <path
       style="fill:#5e5353"
       d="M 156.40821,353.5786 C 131.85646,347.98276 108.62424,330.44065 92.072258,305 85.807565,295.37107 77.485972,277.73797 73.581704,265.8193 c -3.674884,-11.21843 -8.014,-30.42886 -9.12374,-40.39324 -0.635968,-5.71038 -0.86296,-6.12937 -3.79223,-7 C 56.732523,217.25704 52.712447,210.89655 50.283838,202 c -2.45992,-9.01125 -2.443671,-32.79428 0.02869,-42 3.532682,-13.15374 9.6366,-19.28751 15.719521,-15.79639 l 2.869497,1.64687 1.584658,-5.67524 C 82.373288,97.603271 106.40725,64.725175 136.69552,49.601926 142.0894,46.908705 155.59125,42 157.60534,42 157.8224,42 158,59.1 158,80 l 0,38 -8.56809,0 -8.5681,0 2.04172,2.86733 c 3.9764,5.58434 30.36541,35.20844 31.10902,34.92274 C 174.85087,155.46875 204,119.17188 204,118.4518 204,118.20331 200.175,118 195.5,118 l -8.5,0 0,-37.893703 0,-37.893702 4.20995,0.945913 c 2.31547,0.520252 7.13053,2.114327 10.70012,3.542389 24.6331,9.85479 45.45048,30.887056 59.99948,60.618803 C 267.43894,118.61935 275,138.99008 275,142.58752 c 0,1.2799 0.46983,1.18807 2.63486,-0.51494 7.29431,-5.73771 14.32827,1.45805 17.78525,18.19436 4.23495,20.50272 -0.92456,46.4086 -10.10419,50.73306 -3.42094,1.61158 -4.28082,3.43447 -4.30227,9.12047 -0.008,1.99126 -0.9034,8.74126 -1.99088,15 C 268.67246,294.6896 236.9988,338.48754 194.5,351.99751 c -8.94978,2.84505 -28.91095,3.67358 -38.09179,1.58109 z"
       id="path3023"
       inkscape:connector-curvature="0" />
    <path
       style="fill:#030202"
       d="m 209.44533,214.04109 c -3.958,-1.60297 -8.34895,-7.91332 -10.55102,-15.16313 -1.74212,-5.73555 -2.05873,-8.69314 -1.63221,-15.24692 1.36387,-20.95666 12.88671,-32.58536 23.26202,-23.47572 4.54155,3.98753 6.95522,8.70977 8.52179,16.6725 4.14326,21.05982 -7.04352,42.29883 -19.60058,37.21327 z M 129.5,211.13944 c -4.14527,-2.56051 -6.05203,-4.90118 -8.69685,-10.67598 -1.90485,-4.1591 -2.27324,-6.66505 -2.27324,-15.46346 0,-8.8136 0.3672,-11.30305 2.28627,-15.5 4.52873,-9.90419 11.50979,-14.26447 18.3211,-11.44314 4.2484,1.75975 6.65617,4.47344 9.70949,10.94314 2.27424,4.81891 2.59812,6.80026 2.61542,16 0.0166,8.85106 -0.33985,11.28325 -2.27007,15.48754 -4.99961,10.88988 -12.62725,15.01583 -19.69212,10.6519 z"
       id="path3021"
       inkscape:connector-curvature="0" />
  </g>
</svg>
